<?xml version="1.0" encoding="UTF-8" standalone="no"?>
<!-- Created with Inkscape (http://www.inkscape.org/) -->

<svg
   version="1.1"
   id="svg2"
   width="192"
   height="192"
   viewBox="0 0 192 192"
   sodipodi:docname="LogoNIRD.svg"
   inkscape:version="1.2.2 (732a01da63, 2022-12-09)"
   xmlns:inkscape="http://www.inkscape.org/namespaces/inkscape"
   xmlns:sodipodi="http://sodipodi.sourceforge.net/DTD/sodipodi-0.dtd"
   xmlns:xlink="http://www.w3.org/1999/xlink"
   xmlns="http://www.w3.org/2000/svg"
   xmlns:svg="http://www.w3.org/2000/svg">
  <defs
     id="defs6">
    <linearGradient
       inkscape:collect="always"
       id="linearGradient12544">
      <stop
         style="stop-color:#00b4ff;stop-opacity:1;"
         offset="0"
         id="stop12540" />
      <stop
         style="stop-color:#000000;stop-opacity:0;"
         offset="1"
         id="stop12542" />
    </linearGradient>
    <linearGradient
       inkscape:collect="always"
       id="linearGradient1450">
      <stop
         style="stop-color:#ffff00;stop-opacity:1;"
         offset="0"
         id="stop1446" />
      <stop
         style="stop-color:#ff4bff;stop-opacity:0.49803922;"
         offset="0.45964658"
         id="stop4358" />
      <stop
         style="stop-color:#000000;stop-opacity:0;"
         offset="1"
         id="stop1448" />
    </linearGradient>
    <linearGradient
       inkscape:collect="always"
       id="linearGradient3246">
      <stop
         style="stop-color:#2e3ed6;stop-opacity:1;"
         offset="0"
         id="stop3242" />
      <stop
         style="stop-color:#fa2eff;stop-opacity:1;"
         offset="1"
         id="stop3244" />
    </linearGradient>
    <linearGradient
       inkscape:collect="always"
       xlink:href="#linearGradient3246"
       id="linearGradient3248"
       x1="36.16378"
       y1="40.981102"
       x2="168.00345"
       y2="19.727369"
       gradientUnits="userSpaceOnUse"
       gradientTransform="translate(-0.16377852,0.00137704)" />
    <radialGradient
       inkscape:collect="always"
       xlink:href="#linearGradient1450"
       id="radialGradient1452"
       cx="146.69815"
       cy="158.18526"
       fx="146.69815"
       fy="158.18526"
       r="66.278046"
       gradientTransform="matrix(0.20874886,-1.9247319,2.0761647,0.2251727,-217.58783,422.42796)"
       gradientUnits="userSpaceOnUse" />
    <radialGradient
       inkscape:collect="always"
       xlink:href="#linearGradient12544"
       id="radialGradient12546"
       cx="16.269264"
       cy="152.22942"
       fx="16.269264"
       fy="152.22942"
       r="66.278042"
       gradientTransform="matrix(0.98812008,0.59444801,-0.95130614,1.5813066,164.82519,-121.64373)"
       gradientUnits="userSpaceOnUse" />
  </defs>
  <sodipodi:namedview
     id="namedview4"
     pagecolor="#ffffff"
     bordercolor="#000000"
     borderopacity="0.25"
     inkscape:showpageshadow="2"
     inkscape:pageopacity="0.0"
     inkscape:pagecheckerboard="0"
     inkscape:deskcolor="#d1d1d1"
     showgrid="false"
     inkscape:zoom="4.1875"
     inkscape:cx="34.865672"
     inkscape:cy="96.597015"
     inkscape:window-width="1920"
     inkscape:window-height="991"
     inkscape:window-x="-9"
     inkscape:window-y="-9"
     inkscape:window-maximized="1"
     inkscape:current-layer="g8" />
  <g
     inkscape:groupmode="layer"
     inkscape:label="Image"
     id="g8">
    <path
       style="display:inline;fill:url(#linearGradient3248);fill-opacity:1;stroke-width:0.32"
       d="m 129.00006,175.1559 c -5.29881,-0.82085 -9.80384,-2.11927 -9.80384,-2.82562 0,-0.76481 3.2247,-4.63983 5.17313,-6.21638 3.75272,-3.03647 7.97308,-4.56203 13.82939,-4.99902 l 3.16252,-0.23598 -0.22725,1.51537 c -0.52359,3.49153 -1.97757,8.19976 -3.57501,11.57647 l -0.80926,1.71064 -2.45676,-0.0431 c -1.35122,-0.0237 -3.73303,-0.24078 -5.29292,-0.48242 z m -23.41798,-7.43248 c -3.23263,-1.76241 -6.416557,-3.78434 -8.604585,-5.46425 -1.044298,-0.80178 -2.04745,-1.55754 -2.229226,-1.67946 -0.6884,-0.46172 2.419997,-5.07011 5.567951,-8.25484 5.55654,-5.62146 14.42793,-9.81151 24,-11.33544 2.40346,-0.38265 4.85776,-0.50833 8.62114,-0.44149 l 5.26114,0.0934 0.68448,1.76801 c 0.73165,1.88984 1.89491,6.32967 2.23565,8.53282 0.20504,1.32577 0.1954,1.34265 -0.85752,1.50298 -0.58569,0.0892 -2.4504,0.23674 -4.14381,0.3279 -7.07508,0.38087 -13.79119,2.64743 -18.84108,6.35851 -2.62339,1.92789 -5.76014,5.30123 -7.16218,7.70239 -0.7269,1.24492 -1.45698,2.12552 -1.76,2.12289 -0.2848,-0.003 -1.53218,-0.55753 -2.77196,-1.23346 z m -29.025859,-5.18767 c -0.478976,-0.27898 -0.56,-0.82937 -0.56,-3.8041 0,-1.91286 0.08741,-3.7057 0.194237,-3.9841 0.161795,-0.42163 0.819197,-0.50617 3.936,-0.50617 2.483593,0 3.870883,0.12912 4.125763,0.384 0.25057,0.25057 0.384,1.56764 0.384,3.7904 0,4.43258 -0.03559,4.46908 -4.345197,4.45587 -1.746141,-0.005 -3.426803,-0.15651 -3.734803,-0.3359 z m 8.821754,-10.93437 c -1.670391,-1.76582 -3.952804,-5.09033 -4.930714,-7.18194 -1.270765,-2.718 -1.673251,-4.8437 -1.497526,-7.90905 0.207382,-3.61755 1.256262,-5.72722 4.389571,-8.82901 4.540294,-4.49462 10.811027,-6.72 18.935784,-6.72 10.54079,0 21.29959,3.76438 28.11313,9.83646 l 1.43199,1.27617 -6.07199,0.18081 c -8.7756,0.26133 -14.17576,1.64071 -22.34805,5.70844 -5.704128,2.8392 -12.640711,8.61891 -15.407821,12.83812 -0.663706,1.012 -1.302102,1.84 -1.418659,1.84 -0.116557,0 -0.654631,-0.468 -1.195715,-1.04 z m -20.190551,-3.61814 c -0.667027,-0.46721 -0.711203,-0.73413 -0.711203,-4.29715 0,-4.92728 -0.118493,-4.80471 4.64471,-4.80471 4.63273,0 4.63529,0.003 4.63529,4.8 0,4.76401 -0.03319,4.8 -4.426944,4.8 -2.587098,0 -3.605526,-0.12249 -4.141853,-0.49814 z m -8,-15.68 c -0.664483,-0.46542 -0.711203,-0.7387 -0.711203,-4.16 0,-4.93723 0.0046,-4.94186 4.937142,-4.94186 4.802221,0 4.662858,-0.14859 4.662858,4.9716 0,3.59345 -0.05813,3.99699 -0.618963,4.29714 -1.028365,0.55036 -7.430263,0.42117 -8.269834,-0.16688 z m 18.808797,-1.80971 c 0,-0.10772 -0.217754,-1.32452 -0.483898,-2.704 -1.028851,-5.33279 -0.51727,-15.68104 1.160189,-23.46815 3.268013,-15.170787 13.553315,-38.467446 23.452088,-53.120003 2.70102,-3.998163 2.23375,-3.383312 6.25339,-8.228368 9.89828,-11.930867 23.20025,-19.750705 38.73823,-22.77306 8.41565,-1.636961 16.66455,-1.594434 19.22367,0.09911 1.50364,0.995066 2.98002,3.881629 3.69397,7.222321 0.62655,2.931728 0.70479,10.22537 0.15059,14.038538 -1.40234,9.648774 -5.51516,18.71512 -12.11689,26.710553 -2.60499,3.154938 -7.62465,8.167978 -10.04578,10.032538 l -1.49444,1.150896 2.26661,1.086243 c 3.47416,1.664947 7.79386,4.856483 10.81231,7.988486 3.22096,3.342141 4.86387,5.704394 5.62567,8.088848 0.52844,1.654036 0.52765,1.812868 -0.0167,3.36 -2.63267,7.482168 -14.09082,15.128938 -25.27448,16.867308 -3.40572,0.52938 -12.46028,0.17853 -16.1845,-0.62713 -2.74595,-0.59402 -10.73167,-2.80684 -11.22111,-3.10932 -0.10932,-0.0676 -1.62529,-0.44411 -3.36883,-0.83676 -4.17179,-0.93951 -10.837596,-1.00495 -13.730089,-0.13479 -7.466934,2.2463 -13.728598,8.44998 -16.335846,16.18459 -0.529616,1.57115 -1.104154,2.70141 -1.104154,2.17215 z m 59.884649,-23.46899 c 7.0973,-1.31803 11.09284,-3.04367 14.41837,-6.22716 1.32848,-1.27175 2.17698,-2.344361 2.17698,-2.751993 0,-1.693888 -4.11688,-5.501168 -7.89845,-7.304464 -7.99273,-3.811447 -18.91444,-1.495092 -38.77846,8.224419 -3.55861,1.741238 -4.47869,2.315438 -4.07349,2.542208 1.43147,0.80108 10.79786,3.7635 14.50817,4.58865 6.56626,1.46031 14.71024,1.84512 19.64688,0.92834 z M 93.276221,89.26922 c 15.801229,-2.634189 29.816109,-8.051104 39.321029,-15.198038 8.04084,-6.046055 15.02598,-15.516467 17.75784,-24.075968 1.65131,-5.173895 2.29869,-11.701072 1.30171,-13.124464 -1.99465,-2.847747 -10.67211,-2.510419 -18.86058,0.733187 -16.81824,6.662022 -33.331305,25.383312 -41.065877,46.55744 -2.238743,6.128765 -2.167655,5.816579 -1.279655,5.619805 0.410042,-0.09086 1.681533,-0.321248 2.825533,-0.511962 z m -46.656,32.90816 c -0.261232,-0.26123 -0.384,-1.78329 -0.384,-4.76082 0,-3.68282 0.08399,-4.44645 0.529702,-4.816 0.38362,-0.31806 1.581796,-0.43918 4.344557,-0.43918 4.830381,0 4.725741,0.1081 4.725741,-4.8822 0,-2.00193 0.149066,-3.91841 0.331258,-4.25884 0.302876,-0.56593 0.708668,-0.61896 4.736,-0.61896 2.999244,0 4.527273,0.12253 4.788742,0.384 0.262774,0.26277 0.384,1.82505 0.384,4.94874 0,4.18552 -0.05142,4.59226 -0.618963,4.896 -0.340429,0.18219 -2.248429,0.33346 -4.24,0.33616 -1.991571,0.003 -3.837037,0.14117 -4.101037,0.30772 -0.375869,0.23712 -0.503338,1.1906 -0.587581,4.3951 -0.05917,2.25075 -0.256803,4.27228 -0.439184,4.49228 -0.456227,0.55034 -8.920598,0.56464 -9.469235,0.016 z m -4.064,-25.10607 c -2.681018,-0.568992 -4.701286,-1.247258 -5.131715,-1.72288 -0.86969,-0.960992 -1.420503,-3.819616 -1.424487,-7.392826 -0.0072,-6.455213 1.981645,-13.102371 5.329383,-17.811977 1.375907,-1.935629 4.644784,-5.250077 6.586819,-6.678644 0.836,-0.614963 1.52,-1.255587 1.52,-1.423609 0,-0.168019 -0.268109,-0.839757 -0.595798,-1.492746 -0.945716,-1.884531 -2.204004,-6.024262 -2.927613,-9.631747 -1.503069,-7.493434 -0.494643,-16.670262 2.256425,-20.533779 1.202746,-1.689104 3.791136,-1.462917 4.436253,0.387662 0.269434,0.772897 0.185408,1.335227 -0.452902,3.031064 -2.584487,6.866349 -2.219933,15.46209 1.007405,23.753431 l 0.91623,2.353881 1.76,-0.204198 c 0.968,-0.112307 2.192,-0.359443 2.72,-0.549191 l 0.96,-0.344995 0.004,-5.004691 c 0.0067,-8.246502 1.457706,-14.25528 4.836221,-20.026803 1.99384,-3.406059 4.211734,-5.617885 5.633305,-5.617885 1.589738,0 2.486442,0.769158 2.486442,2.132772 0,0.878573 -0.354675,1.582495 -1.562886,3.101855 -4.262375,5.360058 -6.044631,10.870131 -6.3285,19.565373 -0.130518,3.997965 -0.07308,5.239699 0.262119,5.666202 0.247565,0.315004 1.414755,0.748656 2.757475,1.024496 5.559379,1.142089 9.755869,5.120377 11.390838,10.798553 1.032624,3.586259 0.382394,10.39512 -1.148313,12.02448 -0.645251,0.686874 -0.921431,0.726269 -5.091424,0.726269 -2.664458,0 -4.73168,0.14695 -5.224221,0.371366 -0.887949,0.404576 -0.855443,0.220484 -0.931203,5.274045 -0.05101,3.402992 -0.219168,3.69016 -3.021719,5.160317 -4.50831,2.364963 -8.919846,3.286979 -15.488643,3.237152 -2.691421,-0.02042 -5.181491,-0.09824 -5.533491,-0.172947 z"
       id="path3195" />
    <path
       style="fill:url(#radialGradient1452);fill-opacity:1;stroke-width:0.32"
       d="m 129.00006,175.1559 c -5.29881,-0.82085 -9.80384,-2.11927 -9.80384,-2.82562 0,-0.76481 3.2247,-4.63983 5.17313,-6.21638 3.75272,-3.03647 7.97308,-4.56203 13.82939,-4.99902 l 3.16252,-0.23598 -0.22725,1.51537 c -0.52359,3.49153 -1.97757,8.19976 -3.57501,11.57647 l -0.80926,1.71064 -2.45676,-0.0431 c -1.35122,-0.0237 -3.73303,-0.24078 -5.29292,-0.48242 z m -23.41798,-7.43248 c -3.23263,-1.76241 -6.416557,-3.78434 -8.604585,-5.46425 -1.044298,-0.80178 -2.04745,-1.55754 -2.229226,-1.67946 -0.6884,-0.46172 2.419994,-5.07011 5.567951,-8.25484 5.55654,-5.62146 14.42793,-9.81151 24,-11.33544 2.40346,-0.38265 4.85776,-0.50833 8.62114,-0.44149 l 5.26114,0.0934 0.68448,1.76801 c 0.73165,1.88984 1.89491,6.32967 2.23565,8.53282 0.20504,1.32577 0.1954,1.34265 -0.85752,1.50298 -0.58569,0.0892 -2.4504,0.23674 -4.14381,0.3279 -7.07508,0.38087 -13.79119,2.64743 -18.84108,6.35851 -2.62339,1.92789 -5.76014,5.30123 -7.16218,7.70239 -0.7269,1.24492 -1.45698,2.12552 -1.76,2.12289 -0.2848,-0.003 -1.53218,-0.55753 -2.77196,-1.23346 z m -29.025859,-5.18767 c -0.478976,-0.27898 -0.56,-0.82937 -0.56,-3.8041 0,-1.91286 0.08741,-3.7057 0.194237,-3.9841 0.161795,-0.42163 0.819197,-0.50617 3.936,-0.50617 2.483593,0 3.870883,0.12912 4.125763,0.384 0.25057,0.25057 0.384,1.56764 0.384,3.7904 0,4.43258 -0.03559,4.46908 -4.345197,4.45587 -1.746141,-0.005 -3.426803,-0.15651 -3.734803,-0.3359 z m 8.821754,-10.93437 c -1.670391,-1.76582 -3.952804,-5.09033 -4.930714,-7.18194 -1.270765,-2.718 -1.673251,-4.8437 -1.497526,-7.90905 0.207382,-3.61755 1.256262,-5.72722 4.389571,-8.82901 4.540294,-4.49462 10.811027,-6.72 18.935784,-6.72 10.54079,0 21.29959,3.76438 28.11313,9.83646 l 1.43199,1.27617 -6.07199,0.18081 c -8.7756,0.26133 -14.17576,1.64071 -22.34805,5.70844 -5.704127,2.8392 -12.640711,8.61891 -15.407821,12.83812 -0.663706,1.012 -1.302102,1.84 -1.418659,1.84 -0.116557,0 -0.654631,-0.468 -1.195715,-1.04 z m -20.190551,-3.61814 c -0.667027,-0.46721 -0.711203,-0.73413 -0.711203,-4.29715 0,-4.92728 -0.118493,-4.80471 4.64471,-4.80471 4.63273,0 4.63529,0.003 4.63529,4.8 0,4.76401 -0.03319,4.8 -4.426944,4.8 -2.587098,0 -3.605526,-0.12249 -4.141853,-0.49814 z m -8,-15.68 c -0.664483,-0.46542 -0.711203,-0.7387 -0.711203,-4.16 0,-4.93723 0.0046,-4.94186 4.937142,-4.94186 4.802221,0 4.662858,-0.14859 4.662858,4.9716 0,3.59345 -0.05813,3.99699 -0.618963,4.29714 -1.028365,0.55036 -7.430263,0.42117 -8.269834,-0.16688 z m 18.808797,-1.80971 c 0,-0.10772 -0.217754,-1.32452 -0.483898,-2.704 -1.028851,-5.33279 -0.51727,-15.68104 1.160189,-23.46815 3.268013,-15.170787 13.553315,-38.467446 23.452088,-53.120003 2.70102,-3.998163 2.23375,-3.383312 6.25339,-8.228368 9.89828,-11.930867 23.20025,-19.750705 38.73823,-22.77306 8.41565,-1.636961 16.66455,-1.594434 19.22367,0.09911 1.50364,0.995066 2.98002,3.881629 3.69397,7.222321 0.62655,2.931728 0.70479,10.22537 0.15059,14.038538 -1.40234,9.648774 -5.51516,18.71512 -12.11689,26.710553 -2.60499,3.154938 -7.62465,8.167978 -10.04578,10.032538 l -1.49444,1.150896 2.26661,1.086243 c 3.47416,1.664947 7.79386,4.856483 10.81231,7.988486 3.22096,3.342141 4.86387,5.704394 5.62567,8.088848 0.52844,1.654036 0.52765,1.812868 -0.0167,3.360006 -2.63267,7.482162 -14.09082,15.128932 -25.27448,16.867302 -3.40572,0.52938 -12.46028,0.17853 -16.1845,-0.62713 -2.74595,-0.59402 -10.73167,-2.80684 -11.22111,-3.10932 -0.10932,-0.0676 -1.62529,-0.44411 -3.36883,-0.83676 -4.17179,-0.93951 -10.837596,-1.00495 -13.730089,-0.13479 -7.466934,2.2463 -13.728598,8.44998 -16.335846,16.18459 -0.529616,1.57115 -1.104154,2.70141 -1.104154,2.17215 z m 59.884649,-23.46899 c 7.0973,-1.31803 11.09284,-3.04367 14.41837,-6.22716 1.32848,-1.271746 2.17698,-2.344361 2.17698,-2.751993 0,-1.693888 -4.11688,-5.501168 -7.89845,-7.304464 -7.99273,-3.811447 -18.91444,-1.495092 -38.77846,8.224421 -3.55861,1.741236 -4.47869,2.315436 -4.07349,2.542206 1.43147,0.80108 10.79786,3.7635 14.50817,4.58865 6.56626,1.46031 14.71024,1.84512 19.64688,0.92834 z M 93.276221,89.26922 c 15.801229,-2.634189 29.816109,-8.051104 39.321029,-15.198038 8.04084,-6.046055 15.02598,-15.516467 17.75784,-24.075968 1.65131,-5.173895 2.29869,-11.701072 1.30171,-13.124464 -1.99465,-2.847747 -10.67211,-2.510419 -18.86058,0.733187 -16.81824,6.662022 -33.331307,25.383312 -41.065877,46.55744 -2.238743,6.128765 -2.167655,5.816579 -1.279655,5.619805 0.410042,-0.09086 1.681533,-0.321248 2.825533,-0.511962 z m -46.656,32.90816 c -0.261232,-0.26123 -0.384,-1.78329 -0.384,-4.76082 0,-3.68282 0.08399,-4.44645 0.529702,-4.816 0.38362,-0.31806 1.581796,-0.43918 4.344557,-0.43918 4.830381,0 4.725741,0.1081 4.725741,-4.8822 0,-2.00193 0.149066,-3.91841 0.331258,-4.25884 0.302876,-0.56593 0.708668,-0.61896 4.736,-0.61896 2.999244,0 4.527273,0.12253 4.788742,0.384 0.262774,0.26277 0.384,1.82505 0.384,4.94874 0,4.18552 -0.05142,4.59226 -0.618963,4.896 -0.340429,0.18219 -2.248429,0.33346 -4.24,0.33616 -1.991571,0.003 -3.837037,0.14117 -4.101037,0.30772 -0.375869,0.23712 -0.503338,1.1906 -0.587581,4.3951 -0.05917,2.25075 -0.256803,4.27228 -0.439184,4.49228 -0.456227,0.55034 -8.920598,0.56464 -9.469235,0.016 z m -4.064,-25.10607 c -2.681018,-0.568992 -4.701286,-1.247258 -5.131715,-1.72288 -0.86969,-0.960992 -1.420503,-3.819616 -1.424487,-7.392826 -0.0072,-6.455213 1.981645,-13.102371 5.329383,-17.811977 1.375907,-1.935629 4.644784,-5.250077 6.586819,-6.678644 0.836,-0.614963 1.52,-1.255587 1.52,-1.423609 0,-0.168019 -0.268109,-0.839757 -0.595798,-1.492746 -0.945716,-1.884531 -2.204004,-6.024262 -2.927613,-9.631747 -1.503069,-7.493434 -0.494643,-16.670262 2.256425,-20.533779 1.202746,-1.689104 3.791136,-1.462917 4.436253,0.387662 0.269434,0.772897 0.185408,1.335227 -0.452902,3.031064 -2.584487,6.866349 -2.219933,15.46209 1.007405,23.753431 l 0.91623,2.353881 1.76,-0.204198 c 0.968,-0.112307 2.192,-0.359443 2.72,-0.549191 l 0.96,-0.344995 0.004,-5.004691 c 0.0067,-8.246502 1.457706,-14.25528 4.836221,-20.026803 1.99384,-3.406059 4.211734,-5.617885 5.633305,-5.617885 1.589738,0 2.486442,0.769158 2.486442,2.132772 0,0.878573 -0.354675,1.582495 -1.562886,3.101855 -4.262375,5.360058 -6.044631,10.870131 -6.3285,19.565373 -0.130518,3.997965 -0.07308,5.239699 0.262119,5.666202 0.247565,0.315004 1.414755,0.748656 2.757475,1.024496 5.559379,1.142089 9.755869,5.120377 11.390838,10.798553 1.032624,3.586259 0.382394,10.39512 -1.148313,12.02448 -0.645251,0.686874 -0.921431,0.726269 -5.091424,0.726269 -2.664458,0 -4.73168,0.14695 -5.224221,0.371366 -0.887949,0.404576 -0.855443,0.220484 -0.931203,5.274045 -0.05101,3.402992 -0.219168,3.69016 -3.021719,5.160317 -4.50831,2.364963 -8.919846,3.286979 -15.488643,3.237152 -2.691421,-0.02042 -5.181491,-0.09824 -5.533491,-0.172947 z"
       id="path3195-2"
       inkscape:transform-center-x="28.706425"
       inkscape:transform-center-y="-24.991475" />
    <path
       style="display:inline;fill:url(#radialGradient12546);fill-opacity:1;stroke-width:0.32"
       d="m 129.00006,175.1559 c -5.29881,-0.82085 -9.80384,-2.11927 -9.80384,-2.82562 0,-0.76481 3.2247,-4.63983 5.17313,-6.21638 3.75272,-3.03647 7.97308,-4.56203 13.82939,-4.99902 l 3.16252,-0.23598 -0.22725,1.51537 c -0.52359,3.49153 -1.97757,8.19976 -3.57501,11.57647 l -0.80926,1.71064 -2.45676,-0.0431 c -1.35122,-0.0237 -3.73303,-0.24078 -5.29292,-0.48242 z m -23.41798,-7.43248 c -3.23263,-1.76241 -6.416562,-3.78434 -8.604592,-5.46425 -1.04429,-0.80178 -2.04745,-1.55754 -2.22922,-1.67946 -0.6884,-0.46172 2.42,-5.07011 5.567952,-8.25484 5.55654,-5.62146 14.42793,-9.81151 24,-11.33544 2.40346,-0.38265 4.85776,-0.50833 8.62114,-0.44149 l 5.26114,0.0934 0.68448,1.76801 c 0.73165,1.88984 1.89491,6.32967 2.23565,8.53282 0.20504,1.32577 0.1954,1.34265 -0.85752,1.50298 -0.58569,0.0892 -2.4504,0.23674 -4.14381,0.3279 -7.07508,0.38087 -13.79119,2.64743 -18.84108,6.35851 -2.62339,1.92789 -5.76014,5.30123 -7.16218,7.70239 -0.7269,1.24492 -1.45698,2.12552 -1.76,2.12289 -0.2848,-0.003 -1.53218,-0.55753 -2.77196,-1.23346 z m -29.025862,-5.18767 c -0.47898,-0.27898 -0.56,-0.82937 -0.56,-3.8041 0,-1.91286 0.0874,-3.7057 0.19424,-3.9841 0.16179,-0.42163 0.81919,-0.50617 3.936,-0.50617 2.48359,0 3.87088,0.12912 4.12576,0.384 0.25057,0.25057 0.384,1.56764 0.384,3.7904 0,4.43258 -0.0356,4.46908 -4.3452,4.45587 -1.74614,-0.005 -3.4268,-0.15651 -3.7348,-0.3359 z m 8.82175,-10.93437 c -1.67039,-1.76582 -3.9528,-5.09033 -4.93071,-7.18194 -1.27076,-2.718 -1.67325,-4.8437 -1.49753,-7.90905 0.20739,-3.61755 1.25627,-5.72722 4.38958,-8.82901 4.54029,-4.49462 10.81102,-6.72 18.935782,-6.72 10.54079,0 21.29959,3.76438 28.11313,9.83646 l 1.43199,1.27617 -6.07199,0.18081 c -8.7756,0.26133 -14.17576,1.64071 -22.34805,5.70844 -5.704132,2.8392 -12.640712,8.61891 -15.407822,12.83812 -0.66371,1.012 -1.3021,1.84 -1.41866,1.84 -0.11656,0 -0.65463,-0.468 -1.19572,-1.04 z m -20.19055,-3.61814 c -0.66702,-0.46721 -0.7112,-0.73413 -0.7112,-4.29715 0,-4.92728 -0.11849,-4.80471 4.64471,-4.80471 4.63273,0 4.63529,0.003 4.63529,4.8 0,4.76401 -0.0332,4.8 -4.42694,4.8 -2.5871,0 -3.60553,-0.12249 -4.14186,-0.49814 z m -8,-15.68 c -0.66448,-0.46542 -0.7112,-0.7387 -0.7112,-4.16 0,-4.93723 0.005,-4.94186 4.93714,-4.94186 4.80222,0 4.66286,-0.14859 4.66286,4.9716 0,3.59345 -0.0581,3.99699 -0.61896,4.29714 -1.02837,0.55036 -7.43027,0.42117 -8.26984,-0.16688 z m 18.8088,-1.80971 c 0,-0.10772 -0.21775,-1.32452 -0.4839,-2.704 -1.02885,-5.33279 -0.51727,-15.68104 1.16019,-23.46815 3.26801,-15.170782 13.55332,-38.467446 23.452092,-53.120003 2.70102,-3.998163 2.23375,-3.383312 6.25339,-8.228368 9.89828,-11.930867 23.20025,-19.750705 38.73823,-22.77306 8.41565,-1.636961 16.66455,-1.594434 19.22367,0.09911 1.50364,0.995066 2.98002,3.881629 3.69397,7.222321 0.62655,2.931728 0.70479,10.22537 0.15059,14.038537 -1.40234,9.648775 -5.51516,18.71512 -12.11689,26.710554 -2.60499,3.154938 -7.62465,8.167978 -10.04578,10.032538 l -1.49444,1.150896 2.26661,1.086243 c 3.47416,1.66495 7.79386,4.85648 10.81231,7.98849 3.22096,3.34214 4.86387,5.70439 5.62567,8.08884 0.52844,1.654041 0.52765,1.812871 -0.0167,3.360001 -2.63267,7.482171 -14.09082,15.128941 -25.27448,16.867311 -3.40572,0.52938 -12.46028,0.17853 -16.1845,-0.62713 -2.74595,-0.59402 -10.73167,-2.80684 -11.22111,-3.10932 -0.10932,-0.0676 -1.62529,-0.44411 -3.36883,-0.83676 -4.17179,-0.93951 -10.837602,-1.00495 -13.730092,-0.13479 -7.46693,2.2463 -13.7286,8.44998 -16.33584,16.18459 -0.52962,1.57115 -1.10416,2.70141 -1.10416,2.17215 z m 59.884652,-23.46899 c 7.0973,-1.31803 11.09284,-3.04367 14.41837,-6.22716 1.32848,-1.271751 2.17698,-2.344361 2.17698,-2.751991 0,-1.693891 -4.11688,-5.501171 -7.89845,-7.304471 -7.99273,-3.81144 -18.91444,-1.49509 -38.77846,8.224421 -3.55861,1.741241 -4.47869,2.315441 -4.07349,2.542211 1.43147,0.80108 10.79786,3.7635 14.50817,4.58865 6.56626,1.46031 14.71024,1.84512 19.64688,0.92834 z M 93.276218,89.269218 c 15.801232,-2.63419 29.816112,-8.0511 39.321032,-15.198036 8.04084,-6.046055 15.02598,-15.516467 17.75784,-24.075968 1.65131,-5.173895 2.29869,-11.701072 1.30171,-13.124464 -1.99465,-2.847747 -10.67211,-2.510419 -18.86058,0.733187 -16.81824,6.662021 -33.331302,25.383312 -41.065882,46.557441 -2.23874,6.12876 -2.16765,5.81658 -1.27965,5.6198 0.41004,-0.0909 1.68153,-0.32124 2.82553,-0.51196 z m -46.656,32.908162 c -0.26123,-0.26123 -0.384,-1.78329 -0.384,-4.76082 0,-3.68282 0.084,-4.44645 0.5297,-4.816 0.38362,-0.31806 1.5818,-0.43918 4.34456,-0.43918 4.83038,0 4.72574,0.1081 4.72574,-4.8822 0,-2.00193 0.14907,-3.91841 0.33126,-4.25884 0.30287,-0.56593 0.70867,-0.61896 4.736,-0.61896 2.99924,0 4.52727,0.12253 4.78874,0.384 0.26277,0.26277 0.384,1.82505 0.384,4.94874 0,4.18552 -0.0514,4.59226 -0.61896,4.896 -0.34043,0.18219 -2.24843,0.33346 -4.24,0.33616 -1.99157,0.003 -3.83704,0.14117 -4.10104,0.30772 -0.37587,0.23712 -0.50334,1.1906 -0.58758,4.3951 -0.0592,2.25075 -0.2568,4.27228 -0.43918,4.49228 -0.45623,0.55034 -8.9206,0.56464 -9.46924,0.016 z m -4.064,-25.106072 c -2.68102,-0.56899 -4.70129,-1.24726 -5.13171,-1.72288 -0.86969,-0.96099 -1.42051,-3.81961 -1.42449,-7.39282 -0.007,-6.45522 1.98164,-13.102376 5.32938,-17.811982 1.37591,-1.935629 4.64479,-5.250077 6.58682,-6.678644 0.836,-0.614963 1.52,-1.255586 1.52,-1.423609 0,-0.168019 -0.26811,-0.839756 -0.5958,-1.492746 -0.94571,-1.88453 -2.204,-6.024261 -2.92761,-9.631746 -1.50307,-7.493435 -0.49464,-16.670262 2.25643,-20.533779 1.20274,-1.689104 3.79113,-1.462917 4.43625,0.387662 0.26943,0.772897 0.18541,1.335227 -0.4529,3.031063 -2.58449,6.86635 -2.21994,15.462091 1.0074,23.753431 l 0.91623,2.353881 1.76,-0.204197 c 0.968,-0.112307 2.192,-0.359443 2.72,-0.549192 l 0.96,-0.344994 0.004,-5.004691 c 0.007,-8.246502 1.45771,-14.25528 4.83622,-20.026803 1.99384,-3.406059 4.21174,-5.617885 5.63331,-5.617885 1.58973,0 2.48644,0.769158 2.48644,2.132772 0,0.878572 -0.35468,1.582495 -1.56289,3.101854 -4.26237,5.360058 -6.04463,10.870131 -6.3285,19.565374 -0.13052,3.997964 -0.0731,5.239699 0.26212,5.666202 0.24757,0.315004 1.41476,0.748655 2.75748,1.024495 5.55938,1.142089 9.75587,5.120378 11.39083,10.798553 1.03263,3.586259 0.3824,10.395121 -1.14831,12.024481 -0.64525,0.68687 -0.92143,0.72627 -5.09142,0.72627 -2.66446,0 -4.73168,0.14695 -5.22422,0.37136 -0.88795,0.40458 -0.85545,0.22049 -0.93121,5.27405 -0.051,3.40299 -0.21916,3.69016 -3.02172,5.16032 -4.50831,2.36496 -8.91984,3.28698 -15.48864,3.23715 -2.69142,-0.0204 -5.18149,-0.0982 -5.53349,-0.17295 z"
       id="path3195-4" />
  </g>
</svg>
